<?xml version="1.0" standalone="no"?>
<!DOCTYPE svg PUBLIC "-//W3C//DTD SVG 20010904//EN"
 "http://www.w3.org/TR/2001/REC-SVG-20010904/DTD/svg10.dtd">
<svg version="1.0" xmlns="http://www.w3.org/2000/svg"
 width="388.000000pt" height="388.000000pt" viewBox="0 0 388.000000 388.000000"
 preserveAspectRatio="xMidYMid meet">
<metadata>
Created by potrace 1.14, written by Peter Selinger 2001-2017
</metadata>
<g transform="translate(0.000000,388.000000) scale(0.100000,-0.100000)"
fill="#000000" stroke="none">
<path d="M300 2611 c0 -5 -16 -36 -35 -68 -19 -31 -32 -59 -29 -63 3 -3 11 3
18 12 7 9 27 20 44 23 27 4 32 2 32 -15 0 -19 15 -27 23 -12 8 13 -28 125 -40
130 -7 2 -13 -1 -13 -7z m20 -68 c0 -7 -9 -13 -20 -13 -17 0 -18 3 -8 25 8 19
14 22 20 13 4 -7 8 -19 8 -25z"/>
<path d="M411 2601 c-39 -39 -35 -119 7 -122 41 -3 88 23 76 42 -2 5 -14 -1
-24 -11 -23 -23 -43 -25 -59 -6 -16 19 -2 75 24 92 25 16 55 9 55 -12 0 -8 5
-14 10 -14 6 0 10 6 10 13 0 38 -67 50 -99 18z"/>
<path d="M547 2554 c-38 -64 -43 -100 -9 -58 9 11 23 19 30 18 6 -1 19 -2 27
-3 8 0 15 -8 15 -16 0 -8 5 -15 10 -15 13 0 12 12 -4 79 -7 30 -16 56 -22 58
-5 1 -26 -27 -47 -63z m53 -11 c0 -7 -9 -13 -20 -13 -23 0 -24 3 -8 30 13 20
28 10 28 -17z"/>
<path d="M671 2570 c-18 -83 -16 -90 23 -90 61 0 83 19 93 80 5 35 -26 60 -73
60 -31 0 -33 -3 -43 -50z m83 21 c11 -9 14 -22 10 -40 -8 -34 -23 -49 -54 -53
-27 -3 -28 3 -15 78 6 33 30 39 59 15z"/>
<path d="M825 2610 c-2 -3 -6 -34 -10 -68 l-6 -62 46 0 c26 0 44 4 40 9 -3 5
-19 8 -35 6 -26 -4 -29 -1 -28 20 2 21 8 25 35 25 18 0 33 5 33 11 0 5 -8 9
-17 8 -33 -3 -43 1 -43 16 0 17 28 33 52 30 10 -2 20 1 24 6 3 5 -15 8 -41 7
-25 0 -48 -4 -50 -8z"/>
<path d="M947 2613 c-3 -5 -8 -36 -12 -70 -9 -78 11 -88 21 -10 l7 52 17 -49
c9 -28 21 -51 26 -53 5 -2 22 18 37 45 l28 47 -6 -47 c-4 -31 -2 -48 4 -48 6
0 11 3 12 8 0 4 2 14 4 22 1 8 6 36 10 63 10 66 -12 63 -50 -7 -16 -30 -33
-53 -36 -50 -4 2 -10 19 -14 37 -11 57 -16 67 -30 67 -8 0 -16 -3 -18 -7z"/>
<path d="M1131 2557 c-13 -77 -13 -77 -2 -77 10 0 16 22 26 93 11 72 -11 58
-24 -16z"/>
<path d="M1240 2612 c0 -5 -16 -36 -35 -68 -19 -31 -32 -60 -29 -63 3 -3 12 2
19 12 19 26 66 30 72 6 3 -11 11 -19 18 -19 13 0 10 22 -13 104 -8 28 -32 49
-32 28z m20 -63 c0 -12 -7 -19 -20 -19 -17 0 -18 3 -8 25 12 27 28 24 28 -6z"/>
<path d="M1383 2562 c-41 -3 -57 -15 -30 -24 6 -2 558 -4 1226 -4 962 1 1215
4 1218 14 3 8 -9 12 -39 12 -294 3 -2344 4 -2375 2z"/>
<path d="M220 2414 c0 -13 -51 -337 -95 -605 -32 -188 -44 -269 -47 -294 l-3
-30 1777 0 1778 -1 6 36 c5 36 11 69 18 106 3 12 7 39 10 60 11 68 26 158 31
184 17 99 38 234 51 325 3 28 7 52 9 55 4 7 18 109 19 140 l1 24 -1777 4
c-978 1 -1778 0 -1778 -4z m335 -135 c3 -3 -3 -53 -14 -110 -24 -127 -72 -403
-77 -444 -2 -16 -7 -37 -9 -46 -3 -9 -8 -33 -10 -54 -3 -20 -8 -41 -11 -46 -3
-5 -35 -8 -72 -7 -65 3 -67 4 -64 28 2 14 25 147 52 295 51 281 64 360 60 371
-1 4 3 10 8 13 13 8 129 7 137 0z m525 -9 c4 -8 11 -35 15 -60 8 -50 12 -73
20 -110 2 -14 7 -41 10 -60 3 -19 15 -82 25 -140 21 -113 24 -126 34 -180 3
-19 8 -46 11 -60 3 -14 8 -39 11 -56 l6 -31 -76 0 c-42 -1 -76 2 -77 5 0 4 -2
16 -5 27 -2 11 -6 35 -9 53 -2 18 -7 37 -10 42 -3 5 -68 9 -144 9 l-138 1 -37
-70 -37 -69 -69 1 c-39 1 -70 3 -70 6 0 5 105 204 185 352 31 58 77 143 102
190 25 47 56 103 69 125 l23 41 76 -1 c57 0 79 -4 85 -15z m828 -9 c61 -31 98
-67 121 -117 36 -76 32 -82 -54 -81 -74 0 -75 1 -101 35 -86 111 -285 69 -359
-77 -47 -94 -49 -190 -4 -255 32 -48 80 -70 151 -69 62 1 122 28 165 75 20 21
31 24 93 23 38 -1 73 -4 76 -8 13 -12 -64 -103 -122 -144 -116 -81 -282 -99
-394 -42 -43 21 -102 82 -125 128 -23 46 -28 170 -9 241 37 138 145 251 289
303 72 25 213 19 273 -12z m715 20 c7 -1 6 -9 -8 -77 l-7 -30 -129 -1 c-71 0
-132 -3 -136 -7 -5 -5 -31 -135 -32 -163 -1 -9 32 -13 117 -15 l117 -3 -8 -52
-9 -53 -118 0 c-130 0 -125 2 -134 -65 -2 -17 -7 -53 -11 -81 l-7 -52 128 1
129 0 -3 -49 c-1 -26 -7 -51 -13 -54 -8 -5 -409 -11 -409 -6 0 1 7 37 15 80 8
44 18 93 20 110 3 17 10 54 15 81 13 70 19 105 25 145 3 19 8 44 10 56 3 12 7
39 11 60 3 21 7 44 8 49 2 6 6 33 11 60 4 28 11 55 16 60 6 8 355 13 402 6z
m296 -7 c7 -8 74 -258 86 -324 3 -14 15 -63 28 -109 l23 -84 80 129 c43 70 80
132 82 136 2 4 38 65 81 135 l77 127 68 0 c37 1 73 -2 78 -5 12 -8 7 -49 -22
-204 -10 -55 -22 -116 -25 -135 -31 -183 -56 -329 -60 -346 -4 -20 -11 -22
-75 -21 -38 0 -70 4 -70 8 0 4 9 54 20 111 11 57 22 119 24 138 5 35 22 134
32 180 3 14 -21 -18 -52 -70 -132 -221 -182 -307 -197 -336 -15 -29 -20 -31
-71 -32 l-56 0 -9 36 c-15 56 -51 204 -56 232 -26 127 -42 186 -48 170 -4 -8
-15 -67 -26 -130 -11 -63 -23 -128 -26 -145 -3 -16 -8 -46 -11 -65 -3 -19 -7
-44 -9 -55 -2 -11 -4 -25 -4 -30 -1 -7 -30 -11 -71 -12 -79 0 -77 -3 -60 88 6
30 24 133 41 229 48 279 69 384 79 390 14 9 140 4 149 -6z"/>
<path d="M888 1969 l-78 -149 105 0 c58 0 105 1 105 3 0 8 -51 291 -53 293 -1
1 -37 -65 -79 -147z"/>
<path d="M64 1398 c-3 -5 6 -8 21 -8 21 0 25 -4 21 -22 -16 -75 -17 -100 -5
-96 7 2 14 15 15 29 11 82 14 89 39 89 14 0 25 3 25 8 0 9 -110 10 -116 0z"/>
<path d="M203 1398 c-18 -31 -23 -105 -7 -119 19 -16 63 -15 80 2 14 14 38
118 29 127 -6 7 -23 -37 -30 -80 -6 -38 -25 -52 -56 -43 -19 6 -19 29 -4 103
6 24 0 29 -12 10z"/>
<path d="M385 1358 c-3 -29 -9 -61 -12 -72 -3 -12 -1 -17 8 -14 7 2 13 11 15
19 14 92 15 107 6 113 -6 3 -13 -15 -17 -46z"/>
<path d="M450 1405 c-1 -5 -3 -17 -5 -25 -13 -63 -16 -110 -7 -110 5 0 14 21
19 48 l9 47 24 -47 c13 -27 29 -48 36 -48 6 0 14 17 17 38 4 20 9 53 12 72 6
33 6 34 -9 16 -9 -11 -16 -32 -16 -47 0 -35 -16 -46 -24 -16 -6 25 -55 87 -56
72z"/>
<path d="M606 1388 c-57 -52 -35 -130 33 -120 34 5 40 11 47 47 4 22 1 25 -26
25 -19 0 -29 -4 -25 -10 4 -6 11 -8 16 -5 5 4 9 -3 9 -15 0 -25 -26 -37 -49
-23 -17 11 -17 53 0 86 12 21 48 23 55 2 8 -19 24 -19 24 0 0 14 -29 35 -49
35 -5 0 -21 -10 -35 -22z"/>
<path d="M730 1386 c-13 -35 -20 -116 -9 -116 5 0 10 5 10 10 1 6 3 15 4 20 1
6 3 15 4 20 2 14 38 12 48 -2 4 -7 6 -21 5 -30 -2 -10 3 -18 10 -18 15 0 18
37 6 56 -4 7 -2 17 6 23 18 15 9 51 -13 52 -9 0 -27 2 -39 3 -16 2 -26 -4 -32
-18z m75 -5 c6 -11 -22 -41 -39 -41 -19 0 -24 9 -19 31 6 20 47 27 58 10z"/>
<path d="M870 1400 c-6 -4 -30 -105 -30 -127 0 -2 21 -3 47 -3 48 0 55 10 9
13 -15 1 -26 5 -26 10 0 4 0 14 0 22 0 10 10 15 30 15 17 0 30 5 30 11 0 6
-10 9 -22 7 -24 -3 -28 2 -28 27 0 10 11 15 35 15 19 0 35 3 35 8 0 8 -67 10
-80 2z"/>
<path d="M988 1399 c-30 -17 -22 -53 14 -70 39 -17 46 -35 18 -44 -14 -4 -28
-1 -41 11 -22 20 -40 10 -18 -10 32 -31 99 -19 99 18 0 16 -10 27 -35 39 -19
9 -35 21 -35 27 0 20 31 22 50 5 27 -25 37 -12 11 14 -23 23 -37 25 -63 10z"/>
<path d="M1130 1403 c-27 -11 -42 -33 -47 -71 -5 -40 5 -55 44 -65 57 -14 102
93 55 130 -18 13 -29 15 -52 6z m48 -51 c4 -39 -19 -71 -49 -69 -23 2 -33 28
-23 60 10 34 25 48 48 45 16 -2 22 -11 24 -36z"/>
<path d="M1311 1344 c-11 -61 -9 -86 5 -72 3 3 8 27 12 53 l7 47 25 -51 c22
-44 48 -67 51 -43 0 4 2 16 5 27 2 11 7 40 10 65 9 60 -13 42 -24 -21 l-8 -44
-21 41 c-39 74 -49 73 -62 -2z"/>
<path d="M1459 1383 c-5 -15 -9 -45 -7 -67 3 -34 7 -42 27 -44 34 -5 68 6 75
23 12 31 17 103 8 109 -6 3 -13 -18 -16 -48 -8 -61 -24 -81 -57 -71 -20 7 -21
11 -15 66 7 63 2 75 -15 32z"/>
<path d="M1611 1401 c-4 -3 -12 -26 -16 -51 -3 -25 -9 -53 -11 -62 -5 -15 2
-18 40 -18 25 0 46 3 46 8 0 4 -15 7 -33 6 -31 -2 -33 1 -29 22 3 19 11 24 33
24 16 0 29 5 29 10 0 6 -11 10 -25 10 -18 0 -25 5 -25 20 0 16 7 20 37 20 20
0 33 3 29 7 -8 9 -63 11 -75 4z"/>
<path d="M1726 1397 c-26 -19 -16 -50 22 -66 20 -9 32 -21 30 -30 -5 -23 -39
-26 -54 -6 -7 9 -18 15 -24 13 -23 -7 17 -41 48 -40 41 1 52 8 52 36 0 16 -10
27 -36 39 -19 10 -34 23 -31 30 6 19 46 21 53 3 7 -17 24 -22 24 -7 0 16 -30
41 -49 41 -9 0 -25 -6 -35 -13z"/>
<path d="M1834 1398 c-3 -5 4 -8 15 -8 23 0 23 -3 12 -72 -6 -35 -5 -48 4 -48
8 0 15 23 19 60 7 56 9 60 33 60 15 0 23 3 19 8 -10 9 -96 10 -102 0z"/>
<path d="M1966 1401 c-2 -3 -7 -26 -11 -51 -3 -25 -9 -53 -11 -62 -4 -12 0
-18 10 -18 9 0 15 3 15 8 -1 4 -1 17 0 30 1 19 6 22 29 19 22 -3 27 -8 25 -30
-1 -17 3 -27 11 -27 10 0 13 11 12 33 -2 17 2 42 7 55 7 15 7 26 0 33 -11 11
-81 20 -87 10z m67 -25 c3 -8 0 -19 -6 -25 -14 -11 -48 -9 -47 2 0 4 0 14 0
22 0 19 46 20 53 1z"/>
<path d="M2106 1387 c-50 -45 -39 -119 18 -119 36 0 64 27 72 69 11 60 -45 91
-90 50z m69 -20 c13 -51 -36 -105 -69 -78 -16 14 -5 79 16 92 24 16 48 9 53
-14z"/>
<path d="M2315 1400 c-35 -13 -46 -36 -43 -82 3 -36 7 -44 27 -46 35 -5 71 7
71 23 0 19 -8 19 -27 0 -21 -22 -47 -15 -51 14 -9 62 31 100 69 65 17 -15 19
-15 19 -1 0 9 -9 21 -19 27 -22 11 -19 11 -46 0z"/>
<path d="M2427 1388 c-46 -42 -41 -113 8 -119 36 -5 63 11 74 43 20 57 12 78
-36 92 -14 5 -29 0 -46 -16z m62 -12 c18 -21 2 -76 -27 -89 -34 -16 -54 11
-41 55 13 46 45 62 68 34z"/>
<path d="M2557 1403 c-3 -4 -8 -29 -11 -55 -4 -26 -9 -55 -12 -63 -4 -10 0
-15 10 -15 10 0 16 9 16 23 0 12 3 33 7 47 6 23 8 21 18 -19 6 -25 15 -46 20
-48 6 -1 23 18 38 45 l28 47 -6 -47 c-7 -58 11 -67 20 -10 4 20 9 49 11 64 9
45 -13 40 -47 -12 -18 -27 -36 -50 -40 -50 -4 0 -10 18 -14 39 -6 39 -28 70
-38 54z"/>
<path d="M2734 1399 c-2 -5 -7 -21 -9 -36 -2 -16 -6 -43 -9 -60 -4 -20 -2 -33
4 -33 6 0 13 13 16 29 5 24 10 28 35 25 16 -2 35 3 44 12 17 17 20 50 5 59
-17 10 -80 13 -86 4z m71 -34 c0 -15 -8 -21 -31 -23 -29 -3 -31 -1 -26 23 4
21 9 26 31 23 18 -2 26 -9 26 -23z"/>
<path d="M2878 1403 c-12 -3 -19 -20 -24 -61 -8 -67 -8 -66 5 -70 6 -2 11 8
11 22 0 30 13 40 40 31 15 -5 19 -12 14 -31 -5 -18 -2 -24 9 -24 12 0 15 9 12
37 -2 20 2 44 8 54 8 12 8 22 2 28 -12 12 -53 19 -77 14z m58 -24 c10 -17 -21
-42 -44 -35 -28 9 -17 46 14 46 12 0 26 -5 30 -11z"/>
<path d="M3008 1390 c-30 -23 -40 -64 -25 -97 24 -53 100 -23 113 45 6 29 3
39 -16 54 -28 23 -41 23 -72 -2z m62 -20 c14 -26 3 -68 -22 -81 -31 -16 -48
-4 -48 35 0 56 48 88 70 46z"/>
<path d="M3137 1403 c-9 -14 -27 -126 -22 -132 11 -11 26 17 27 53 1 42 12 37
25 -13 5 -19 13 -36 18 -38 6 -2 22 18 37 45 28 48 35 42 19 -16 -7 -24 -7
-32 4 -32 8 0 15 18 20 48 3 26 9 57 12 70 10 41 -20 20 -53 -36 -34 -58 -38
-57 -49 0 -7 37 -29 66 -38 51z"/>
<path d="M3383 1398 c-35 -17 -29 -47 13 -64 24 -10 34 -20 32 -32 -4 -22 -46
-28 -54 -8 -8 20 -24 21 -24 1 0 -37 86 -38 100 -1 10 27 5 35 -36 52 -23 10
-32 19 -28 29 8 20 33 19 56 -2 17 -15 18 -15 18 1 0 12 -41 40 -53 35 -1 0
-12 -5 -24 -11z"/>
<path d="M3525 1400 c-31 -12 -44 -32 -46 -71 -4 -47 6 -59 45 -59 60 0 98 78
57 119 -23 23 -26 24 -56 11z m45 -25 c9 -11 9 -22 0 -49 -22 -68 -89 -52 -69
16 13 47 45 62 69 33z"/>
<path d="M3306 1353 c-4 -27 -10 -56 -13 -67 -3 -12 -1 -17 8 -14 7 2 13 11
15 19 14 95 15 109 6 109 -5 0 -13 -21 -16 -47z"/>
<path d="M1201 1263 c-13 -28 -13 -28 8 -9 22 20 27 36 13 36 -5 0 -14 -12
-21 -27z"/>
</g>
</svg>
